<svg xmlns="http://www.w3.org/2000/svg" viewBox="0 0 300 240"><path d="M40 120c25-52 195-52 220 0 10 22-4 64-42 68-38 5-48-25-68-25s-30 30-68 25c-38-4-52-46-42-68Z" fill="#76d7ff"/><path d="M72 116c29 18 51 18 78 0 27 18 49 18 78 0" fill="none" stroke="#20332e" stroke-width="12" stroke-linecap="round"/><path d="M58 99c-12-22-18-34-32-37" stroke="#ff7a72" stroke-width="11" stroke-linecap="round"/><path d="M242 99c12-22 18-34 32-37" stroke="#ff7a72" stroke-width="11" stroke-linecap="round"/></svg>
